<svg id="logo_footer" data-name="logo footer" xmlns="http://www.w3.org/2000/svg" width="20" height="24.2" viewBox="0 0 20 24.2">
  <g id="ロゴ_x5F_決定稿">
    <g id="Group_31" data-name="Group 31">
      <path id="Path_100" data-name="Path 100" d="M19.8,10.2" fill="none" stroke="#db489a" stroke-width="0.1"/>
      <path id="Path_101" data-name="Path 101" d="M7.3,8.7.3,5.4v6.7l7,3.3Z" fill="#bcbec0"/>
      <path id="Path_102" data-name="Path 102" d="M.2,5.1s-.2.2-.2.3v6.8c0,.1,0,.2.2.3l6.9,3.3h.3s.2-.2.2-.3V8.7c0-.1,0-.2-.2-.3L.5,5.1H.2Zm.4.8c.8.4,6,2.8,6.3,3V15c-.8-.4-6-2.8-6.3-3V5.9Z" fill="#fff"/>
      <path id="Path_103" data-name="Path 103" d="M14.2,12,7.3,8.7l-5.5,5L8.7,17Z" fill="#db322b"/>
      <path id="Path_104" data-name="Path 104" d="M7,8.4,1.6,13.5a1.007,1.007,0,0,0-.1.3c0,.1,0,.2.2.2l6.9,3.3H9l5.5-5a1.007,1.007,0,0,0,.1-.3c0-.1,0-.2-.2-.2L7.5,8.5H7.1Zm.3.7c.3.2,5.6,2.7,6.3,3-.6.5-4.7,4.3-5,4.6-.3-.2-5.6-2.7-6.3-3C2.9,13.2,7,9.4,7.3,9.1Z" fill="#fff"/>
      <path id="Path_105" data-name="Path 105" d="M8.7,17,1.8,13.7v6.8l6.9,3.3Z" fill="#bcbec0"/>
      <path id="Path_106" data-name="Path 106" d="M1.6,13.5s-.2.2-.2.3v6.8c0,.1,0,.2.2.3l6.9,3.3h.3a1.007,1.007,0,0,0,.1-.3V17.1c0-.1,0-.2-.2-.3L1.8,13.5H1.5Zm.5.7c.8.4,6,2.8,6.3,3v6.1c-.8-.4-6-2.8-6.3-3V14.2Z" fill="#fff"/>
      <path id="Path_107" data-name="Path 107" d="M14.2,12,8.7,17v6.8l5.5-5Z" fill="#e6e7e8"/>
      <path id="Path_108" data-name="Path 108" d="M14,11.8l-5.5,5a.349.349,0,0,0-.1.2v6.8c0,.1,0,.2.2.3h.3l5.5-5a.349.349,0,0,0,.1-.2V12.1c0-.1,0-.2-.2-.3H14Zm-.1.9v5.9c-.2.2-4,3.7-4.8,4.5V17.2c.2-.2,4-3.7,4.8-4.5Z" fill="#fff"/>
      <path id="Path_109" data-name="Path 109" d="M19.7,6.9,14.2,12v6.8l5.5-5.1Z" fill="#e6e7e8"/>
      <path id="Path_110" data-name="Path 110" d="M19.5,6.7l-5.5,5a.349.349,0,0,0-.1.2v6.8c0,.1,0,.2.2.3h.3l5.5-5a.349.349,0,0,0,.1-.2V7c0-.1,0-.2-.2-.3Zm-.1,1v5.9c-.2.2-4,3.7-4.8,4.5V12.2c.2-.2,4-3.7,4.8-4.5Z" fill="#fff"/>
      <path id="Path_111" data-name="Path 111" d="M19.7,6.9l-7-3.3L7.3,8.7,14.2,12Z" fill="#f79433"/>
      <path id="Path_112" data-name="Path 112" d="M12.5,3.4,7,8.4a1.007,1.007,0,0,0-.1.3c0,.1,0,.2.2.2L14,12.2h.4l5.5-5a1.007,1.007,0,0,0,.1-.3c0-.1,0-.2-.2-.2L12.9,3.4h-.4Zm.3.6c.3.2,5.6,2.7,6.3,3-.6.5-4.7,4.3-5,4.6-.3-.2-5.6-2.7-6.3-3,.6-.5,4.7-4.3,5-4.6Z" fill="#fff"/>
      <path id="Path_113" data-name="Path 113" d="M12.7,3.6,5.8.3.3,5.4l7,3.3Z" fill="#f79433"/>
      <path id="Path_114" data-name="Path 114" d="M5.6,0,.1,5.1a1.007,1.007,0,0,0-.1.3c0,.1,0,.2.2.2L7.1,8.9h.4l5.5-5s.1-.2,0-.3c0-.1,0-.2-.2-.2L5.9,0H5.5Zm.3.7c.3.2,5.6,2.7,6.3,3-.6.5-4.7,4.3-5,4.6-.3-.2-5.6-2.7-6.3-3C1.5,4.7,5.6,1,5.9.7Z" fill="#fff"/>
      <path id="Path_115" data-name="Path 115" d="M5.6,6.2l-.9-.4,3.2-3,.9.4L5.6,6.1Z" fill="#fff"/>
      <path id="Path_116" data-name="Path 116" d="M15.9,7.9,13.4,6.7,12,8l2.5,1.2-.7.6L11.3,8.6q-.9-.45-.3-1.2l1.2-1.2a1.08,1.08,0,0,1,.7-.3,1.486,1.486,0,0,1,.9.2l2.6,1.2-.6.6Z" fill="#fff"/>
      <path id="Path_117" data-name="Path 117" d="M8.9,14.4a1.248,1.248,0,0,1-1.6.3L4.8,13.4l3.1-2.8,2.4,1.2a.51.51,0,0,1,.4.5,1.458,1.458,0,0,1-.5.8L8.9,14.3ZM7.8,14l1.6-1.5-1.3-.7L6.5,13.3Z" fill="#ede94e"/>
    </g>
  </g>
</svg>
